<?xml version="1.0" encoding="iso-8859-1"?>
<!-- Uploaded to: SVG Repo, www.svgrepo.com, Generator: SVG Repo Mixer Tools -->
<svg fill="#000000" height="800px" width="800px" version="1.1" id="Layer_1" xmlns="http://www.w3.org/2000/svg" xmlns:xlink="http://www.w3.org/1999/xlink" 
	 viewBox="0 0 512 512" xml:space="preserve">
<g>
	<g>
		<path d="M427.055,131.491c-2.327-2.327-5.818-3.491-10.473-3.491c-6.982,1.164-65.164,11.636-86.109,32.582
			c-11.636,11.636-17.455,24.436-17.455,37.236c0,8.145,3.491,16.291,8.145,22.109l-27.927,27.927
			c-4.655,4.655-4.655,11.636,0,16.291c2.327,2.327,5.818,3.491,8.145,3.491s5.818-1.164,8.145-3.491l34.909-34.909
			c4.655-4.655,4.655-11.636,1.164-16.291c-3.491-4.655-8.146-10.473-8.146-15.127c0-6.982,3.491-13.964,10.473-20.945
			c9.309-9.309,34.909-17.455,55.855-23.273c-4.655,22.109-12.8,48.873-22.109,58.182c-4.655,4.655-9.309,6.982-12.8,9.309
			c-5.818,2.327-9.309,8.145-6.982,15.127c2.327,5.818,8.145,9.309,15.127,6.982c8.145-2.327,15.127-8.145,22.109-15.127
			c20.945-20.945,30.255-81.455,31.418-87.273C430.545,137.309,429.382,133.818,427.055,131.491z"/>
	</g>
</g>
<g>
	<g>
		<path d="M217.6,119.855l-46.545-46.545c-4.655-4.655-11.636-4.655-16.291,0s-4.655,11.636,0,16.291l46.545,46.545
			c2.327,2.327,5.818,3.491,8.145,3.491c2.327,0,5.818-1.164,8.146-3.491C222.255,131.491,222.255,124.509,217.6,119.855z"/>
	</g>
</g>
<g>
	<g>
		<path d="M372.364,314.182H267.636V115.2c0-25.6-6.982-41.891-26.764-61.673C204.8,17.455,98.909,1.164,95.418,0
			c-4.655,0-8.146,1.164-10.473,3.491s-3.491,5.818-3.491,10.473c1.164,4.655,17.455,110.545,52.364,146.618
			c31.418,31.418,62.836,27.927,79.127,23.273c5.818-2.327,9.309-8.145,6.982-15.127c-2.327-5.818-8.145-9.309-15.127-6.982
			c-12.8,4.655-33.745,4.655-54.691-17.455c-20.945-20.945-36.073-81.455-43.055-117.527c34.909,6.982,95.418,22.109,116.364,44.218
			c16.291,15.127,20.945,24.436,20.945,44.218v198.982H139.636c-6.982,0-11.636,4.655-11.636,11.636v46.545
			c0,6.982,4.655,11.636,11.636,11.636h174.545c6.982,0,11.636-4.655,11.636-11.636s-4.655-11.636-11.636-11.636H151.273v-23.273
			H256h104.727v23.273c-5.818,0-10.473,3.491-11.636,9.309l-20.945,118.691H183.855l-13.964-72.145
			c-1.164-5.818-6.982-10.473-13.964-9.309c-5.818,1.164-10.473,6.982-9.309,13.964l15.127,81.455
			c1.164,5.818,5.818,9.309,11.636,9.309h162.909c5.818,0,10.473-3.491,11.636-9.309L370.036,384h2.327
			c6.982,0,11.636-4.655,11.636-11.636v-46.545C384,318.836,379.345,314.182,372.364,314.182z"/>
	</g>
</g>
</svg>